<?xml version="1.0" encoding="utf-8"?>
<!-- Generator: Adobe Illustrator 27.1.1, SVG Export Plug-In . SVG Version: 6.00 Build 0)  -->
<svg version="1.1" id="Layer_1" xmlns="http://www.w3.org/2000/svg" xmlns:xlink="http://www.w3.org/1999/xlink" x="0px" y="0px"
	 viewBox="0 0 292 337.1" style="enable-background:new 0 0 292 337.1;" xml:space="preserve">
<style type="text/css">
	.st0{fill:#FFFFFF;}
</style>
<g>
	<path id="c" class="st0" d="M268,107.1L268,107.1c-13.3,0-24,10.7-24,24v85c0,13.3,10.7,24,24,24l0,0c13.3,0,24-10.7,24-24v-85
		C292,117.8,281.3,107.1,268,107.1z"/>
	<path id="c_00000044165166839766718230000009079094113399189124_" class="st0" d="M24,107.1L24,107.1c13.3,0,24,10.7,24,24v85
		c0,13.3-10.7,24-24,24l0,0c-13.3,0-24-10.7-24-24v-85C0,117.8,10.7,107.1,24,107.1z"/>
	<path class="st0" d="M55,114.1v132c0,12.2,9.8,22,22,22h11v44.5c0,12.3,10,23.5,22.2,24.4c14.1,1,25.8-10.1,25.8-23.9v-45h20v44.5
		c0,12.3,10,23.5,22.2,24.4c14.1,1,25.8-10.1,25.8-23.9v-45h11c12.2,0,22-9.8,22-22v-132H55z"/>
	<path class="st0" d="M237,107.1H55c0-30.2,17.3-56.7,43.2-71.5L83.8,9.7c-1.7-3.1-0.6-7.1,2.5-8.8c3.1-1.7,7.1-0.6,8.8,2.5
		L110,29.9c11.1-4.4,23.2-6.9,36-6.9s25,2.4,36,6.9l14.7-26.6c1.7-3.1,5.7-4.3,8.8-2.5c3.1,1.7,4.3,5.7,2.5,8.8l-14.4,25.9
		C219.7,50.4,237,76.9,237,107.1z M100,66.1c0,2.2,1.8,4,4,4s4-1.8,4-4s-1.8-4-4-4S100,63.9,100,66.1z M184,66.1c0,2.2,1.8,4,4,4
		s4-1.8,4-4s-1.8-4-4-4S184,63.9,184,66.1z"/>
</g>
</svg>
