<?xml version="1.0" encoding="utf-8"?>
<!-- Generator: Adobe Illustrator 27.1.1, SVG Export Plug-In . SVG Version: 6.00 Build 0)  -->
<svg version="1.1" id="Layer_1" xmlns="http://www.w3.org/2000/svg" xmlns:xlink="http://www.w3.org/1999/xlink" x="0px" y="0px"
	 viewBox="0 0 81.4 100" style="enable-background:new 0 0 81.4 100;" xml:space="preserve">
<style type="text/css">
	.st0{fill:#FFFFFF;}
</style>
<path id="_xF8FF_" class="st0" d="M41.9,23.1c4.5,0,10.2-3.1,13.5-7.1c3.1-3.7,5.3-8.8,5.3-14c0-0.7-0.1-1.4-0.2-2
	c-5,0.2-11.1,3.4-14.7,7.6c-2.9,3.2-5.5,8.3-5.5,13.5c0,0.8,0.1,1.5,0.2,1.8C40.9,23,41.4,23.1,41.9,23.1z M26,100
	c6.2,0,8.9-4.1,16.6-4.1c7.8,0,9.5,4,16.4,4c6.7,0,11.3-6.2,15.5-12.3c4.8-7,6.7-13.9,6.9-14.2C80.9,73.2,68,68,68,53.1
	c0-12.8,10.2-18.6,10.7-19.1c-6.7-9.7-17-9.9-19.8-9.9c-7.6,0-13.7,4.6-17.6,4.6c-4.2,0-9.7-4.3-16.3-4.3C12.7,24.4,0,34.7,0,54.2
	C0,66.2,4.7,79,10.5,87.3C15.4,94.3,19.8,100,26,100z"/>
</svg>
