<?xml version="1.0" encoding="utf-8"?>
<!-- Generator: Adobe Illustrator 27.2.0, SVG Export Plug-In . SVG Version: 6.00 Build 0)  -->
<svg version="1.1" id="Layer_1" xmlns="http://www.w3.org/2000/svg" xmlns:xlink="http://www.w3.org/1999/xlink" x="0px" y="0px"
	 viewBox="0 0 2844.73 1059.94" style="enable-background:new 0 0 2844.73 1059.94;" xml:space="preserve">
<style type="text/css">
	.st0{fill:#FFFFFF;}
</style>
<g>
	<g>
		<path class="st0" d="M529.97,1059.94c-71.53,0-140.94-14.02-206.3-41.66c-63.11-26.69-119.79-64.9-168.44-113.56
			c-48.66-48.66-86.86-105.33-113.56-168.44C14.02,670.9,0,601.5,0,529.97s14.02-140.94,41.66-206.3
			c26.69-63.11,64.9-119.79,113.56-168.44c48.66-48.66,105.33-86.87,168.44-113.56C389.03,14.02,458.44,0,529.97,0
			s140.94,14.02,206.3,41.66c63.11,26.69,119.79,64.9,168.44,113.56c48.66,48.66,86.86,105.33,113.56,168.44
			c27.65,65.36,41.66,134.77,41.66,206.3c0,11.45-0.37,23.02-1.1,34.39l-81.37-5.22c0.62-9.64,0.93-19.46,0.93-29.17
			c0-60.56-11.85-119.28-35.22-174.54c-22.58-53.39-54.92-101.36-96.12-142.55c-41.2-41.2-89.16-73.54-142.55-96.12
			c-55.26-23.37-113.98-35.22-174.54-35.22s-119.28,11.85-174.54,35.22c-53.39,22.58-101.36,54.92-142.55,96.12
			c-41.2,41.2-73.54,89.16-96.12,142.55c-23.37,55.26-35.22,113.98-35.22,174.54s11.85,119.28,35.22,174.54
			c22.58,53.39,54.92,101.36,96.12,142.55c41.2,41.2,89.16,73.54,142.55,96.12c55.26,23.37,113.98,35.22,174.54,35.22
			c81.54,0,161.35-22.09,230.81-63.87c67.53-40.62,123.42-98.5,161.62-167.36l71.3,39.55c-45.13,81.34-111.13,149.7-190.89,197.68
			C720.66,1033.81,626.31,1059.94,529.97,1059.94z"/>
	</g>
	<g>
		<path class="st0" d="M786.86,390.82c22.48,23.99,33.73,56.56,33.73,97.64v216.66h-84.99V513.1c0-24.64-6.81-44-20.43-58.06
			c-13.62-14.05-32.11-21.1-55.46-21.1c-26.82,0.89-48.12,10.61-63.9,29.21c-15.8,18.59-23.69,42.16-23.69,70.7v171.27h-84.98V513.1
			c0-24.64-6.71-44-20.11-58.06c-13.41-14.05-31.79-21.1-55.14-21.1c-27.24,0.89-48.77,10.61-64.55,29.21
			c-15.79,18.59-23.68,42.16-23.68,70.7v171.27h-84.33V358.05h84.33v64.24c22.92-44.12,63.57-66.61,121.96-67.47
			c30.27,0,55.68,7.24,76.23,21.73c20.53,14.49,34.91,34.92,43.13,61.29c22.06-54.48,65.09-82.17,129.1-83.02
			C733.44,354.82,764.37,366.82,786.86,390.82z"/>
	</g>
	<g>
		<circle class="st0" cx="998.79" cy="664.35" r="40.77"/>
	</g>
	<g>
		<g>
			<path class="st0" d="M1638.23,321.53c14.11,15.06,21.17,35.49,21.17,61.28v136.01h-53.34V398.29c0-15.48-4.27-27.63-12.82-36.44
				c-8.55-8.82-20.16-13.24-34.81-13.24c-16.84,0.56-30.2,6.66-40.11,18.33c-9.92,11.67-14.87,26.46-14.87,44.38v107.5h-53.34
				V398.29c0-15.48-4.21-27.63-12.63-36.44c-8.42-8.82-19.95-13.24-34.61-13.24c-17.1,0.56-30.61,6.66-40.52,18.33
				c-9.91,11.67-14.86,26.46-14.86,44.38v107.5h-52.93V300.96h52.93v40.31c14.39-27.69,39.9-41.8,76.55-42.35
				c19,0,34.95,4.55,47.85,13.65c12.89,9.1,21.92,21.92,27.08,38.47c13.85-34.2,40.85-51.58,81.03-52.12
				C1604.7,298.93,1624.12,306.46,1638.23,321.53z"/>
		</g>
		<g>
			<path class="st0" d="M1887.64,329.06c17.51,19.82,26.26,47.65,26.26,83.48c0,7.07-0.14,12.36-0.41,15.89h-160.84
				c3.52,15.47,10.79,27.63,21.79,36.44c10.99,8.82,24.5,13.23,40.52,13.23c11.12,0,21.78-2.1,31.96-6.31
				c10.18-4.21,19.07-10.25,26.67-18.12l28.5,29.72c-10.86,11.95-24.09,21.17-39.7,27.7c-15.61,6.51-32.92,9.77-51.92,9.77
				c-22.26,0-41.88-4.61-58.84-13.85c-16.97-9.23-30.07-22.19-39.29-38.89c-9.24-16.69-13.85-35.9-13.85-57.62
				c0-21.71,4.69-40.98,14.05-57.82c9.36-16.83,22.46-29.92,39.29-39.3c16.83-9.36,35.97-14.05,57.42-14.05
				C1844,299.33,1870.13,309.25,1887.64,329.06z M1865.45,392.99c-0.55-16.02-5.84-28.77-15.88-38.27
				c-10.05-9.5-23.35-14.26-39.9-14.26c-15.47,0-28.44,4.68-38.89,14.05c-10.45,9.36-16.9,22.2-19.34,38.48H1865.45z"/>
		</g>
		<g>
			<path class="st0" d="M2042.37,310.54c12.63-7.47,27.35-11.33,44.18-11.61v51.31c-22.54-1.35-40.52,3.87-53.96,15.68
				c-13.44,11.81-20.16,27.77-20.16,47.85v105.06h-52.93V300.96h52.93v41.94C2019.77,328.8,2029.75,318,2042.37,310.54z"/>
		</g>
		<g>
			<path class="st0" d="M2219.91,345.35c-11.27-3.53-21.65-5.3-31.15-5.3c-8.96,0-16.08,1.57-21.38,4.68
				c-5.29,3.13-7.94,7.94-7.94,14.45c0,6.79,3.33,12.02,9.98,15.68c6.65,3.67,17.16,7.54,31.55,11.61
				c15.2,4.61,27.69,9.16,37.46,13.64c9.77,4.47,18.25,11.13,25.45,19.95c7.19,8.83,10.79,20.43,10.79,34.81
				c0,21.17-8.15,37.46-24.43,48.86c-16.29,11.4-36.79,17.11-61.49,17.11c-16.84,0-33.26-2.65-49.27-7.94
				c-16.02-5.3-29.59-12.82-40.72-22.6l18.33-37.06c9.77,8.42,21.44,15,35.02,19.75c13.57,4.75,26.47,7.13,38.68,7.13
				c9.77,0,17.58-1.7,23.42-5.09c5.83-3.4,8.75-8.49,8.75-15.27c0-7.61-3.4-13.3-10.18-17.11c-6.79-3.8-17.78-8-32.99-12.63
				c-14.66-4.33-26.6-8.61-35.83-12.82c-9.24-4.21-17.24-10.59-24.03-19.14c-6.79-8.55-10.18-19.74-10.18-33.59
				c0-21.44,7.8-37.8,23.42-49.07c15.6-11.26,35.22-16.9,58.84-16.9c14.39,0,28.57,2.04,42.55,6.11
				c13.98,4.07,26.39,9.77,37.25,17.1l-19.14,38.27C2242.1,353.77,2231.17,348.88,2219.91,345.35z"/>
		</g>
		<g>
			<path class="st0" d="M2319.87,300.96h52.93v217.85h-52.93V300.96z"/>
		</g>
		<g>
			<path class="st0" d="M2404.96,301.37l55.38-0.41l57.01,165.73l55.79-165.73h53.34l-83.07,217.85h-54.56L2404.96,301.37z"/>
		</g>
		<g>
			<path class="st0" d="M2818.47,329.06c17.51,19.82,26.26,47.65,26.26,83.48c0,7.07-0.14,12.36-0.41,15.89h-160.84
				c3.52,15.47,10.79,27.63,21.79,36.44c10.99,8.82,24.5,13.23,40.52,13.23c11.12,0,21.78-2.1,31.96-6.31
				c10.18-4.21,19.07-10.25,26.67-18.12l28.5,29.72c-10.86,11.95-24.09,21.17-39.7,27.7c-15.61,6.51-32.92,9.77-51.92,9.77
				c-22.26,0-41.88-4.61-58.84-13.85c-16.97-9.23-30.07-22.19-39.29-38.89c-9.24-16.69-13.85-35.9-13.85-57.62
				c0-21.71,4.69-40.98,14.05-57.82c9.36-16.83,22.46-29.92,39.29-39.3c16.83-9.36,35.97-14.05,57.42-14.05
				C2774.83,299.33,2800.96,309.25,2818.47,329.06z M2796.28,392.99c-0.55-16.02-5.84-28.77-15.88-38.27
				c-10.05-9.5-23.35-14.26-39.9-14.26c-15.47,0-28.44,4.68-38.89,14.05c-10.45,9.36-16.9,22.2-19.34,38.48H2796.28z"/>
		</g>
	</g>
	<g>
		<g>
			<path class="st0" d="M1357.35,692.68c-7.02,4.81-14.56,7.34-22.62,7.61c-7.8,0-13.98-2.4-18.53-7.22
				c-4.55-4.81-6.82-12.02-6.82-21.65v-60.84h-14.63l-0.19-10.14h14.82v-26.32h13.06v26.32l33.15-0.19v10.33h-33.15v58.7
				c0,12.61,4.68,18.92,14.04,18.92c5.2,0,10.85-1.82,16.97-5.46L1357.35,692.68z"/>
		</g>
		<g>
			<path class="st0" d="M1455.44,612.24c8.32,10.08,12.16,23.63,11.51,40.66h-85.22c0.91,10.92,4.94,19.73,12.09,26.42
				c7.15,6.7,15.99,10.04,26.52,10.04c6.5,0,12.54-1.17,18.14-3.51c5.59-2.34,10.4-5.66,14.43-9.95l7.41,7.41
				c-4.94,5.33-10.89,9.46-17.84,12.38c-6.96,2.92-14.6,4.39-22.91,4.39c-9.88,0-18.66-2.18-26.33-6.53
				c-7.67-4.35-13.68-10.43-18.04-18.23c-4.36-7.8-6.53-16.7-6.53-26.72c0-9.88,2.18-18.75,6.53-26.62
				c4.35-7.86,10.37-13.97,18.04-18.33c7.67-4.35,16.31-6.53,25.94-6.53C1435.03,597.12,1447.12,602.16,1455.44,612.24z
				 M1455.24,642.76c-0.65-10.66-4.19-19.14-10.63-25.45c-6.44-6.31-14.85-9.46-25.25-9.46c-10.27,0-18.85,3.19-25.74,9.55
				c-6.89,6.37-10.86,14.82-11.89,25.35H1455.24z"/>
		</g>
		<g>
			<path class="st0" d="M1534.8,608.63c-7.28,0-13.85,1.69-19.7,5.07c-5.85,3.38-10.4,8.09-13.65,14.14
				c-3.25,6.05-4.88,12.97-4.88,20.77c0,7.8,1.62,14.76,4.88,20.87c3.25,6.11,7.8,10.86,13.65,14.23c5.85,3.38,12.41,5.07,19.7,5.07
				c6.63,0,12.7-1.17,18.23-3.51c5.52-2.34,10.17-5.72,13.94-10.14l7.41,7.8c-4.55,5.46-10.27,9.69-17.16,12.68
				c-6.89,2.99-14.56,4.48-23.01,4.48c-9.75,0-18.46-2.18-26.13-6.53c-7.67-4.35-13.68-10.46-18.04-18.33
				c-4.36-7.86-6.53-16.74-6.53-26.62c0-9.88,2.17-18.75,6.53-26.62c4.35-7.86,10.37-13.97,18.04-18.33
				c7.67-4.35,16.38-6.53,26.13-6.53c7.93,0,15.18,1.3,21.74,3.9c6.56,2.6,12.19,6.24,16.87,10.92l-7.41,8.78
				C1557.1,612.66,1546.89,608.63,1534.8,608.63z"/>
		</g>
		<g>
			<path class="st0" d="M1687,607.75c6.95,7.09,10.43,16.8,10.43,29.15v62.79h-13.26v-59.67c0-9.62-2.67-17.16-8-22.62
				c-5.33-5.46-12.74-8.19-22.23-8.19c-11.31,0.13-20.18,3.87-26.62,11.21c-6.44,7.35-9.65,17.06-9.65,29.15v50.12h-13.07V555h13.07
				v66.69c6.89-16.12,20.41-24.31,40.56-24.57C1670.46,597.12,1680.05,600.67,1687,607.75z"/>
		</g>
		<g>
			<path class="st0" d="M1814.54,607.75c6.95,7.09,10.43,16.8,10.43,29.15v62.79h-13.26v-59.67c0-9.62-2.67-17.16-8-22.62
				c-5.33-5.46-12.74-8.19-22.23-8.19c-10.53,0.13-18.95,3.38-25.25,9.75c-6.31,6.37-9.91,14.95-10.82,25.74v54.99h-13.07V597.51
				h13.07v23.79c3.51-7.93,8.68-13.91,15.5-17.94c6.82-4.03,15.11-6.11,24.86-6.24C1797.99,597.12,1807.58,600.67,1814.54,607.75z"
				/>
		</g>
		<g>
			<path class="st0" d="M1927.35,603.66c7.8,4.36,13.91,10.43,18.33,18.23c4.42,7.8,6.63,16.64,6.63,26.52
				c0,10.01-2.21,18.95-6.63,26.81c-4.42,7.87-10.53,13.98-18.33,18.33c-7.8,4.36-16.64,6.53-26.52,6.53
				c-9.88,0-18.72-2.18-26.52-6.53c-7.8-4.35-13.91-10.46-18.33-18.33c-4.42-7.86-6.63-16.8-6.63-26.81
				c0-9.88,2.21-18.72,6.63-26.52c4.42-7.8,10.53-13.88,18.33-18.23c7.8-4.35,16.64-6.53,26.52-6.53
				C1910.7,597.12,1919.55,599.3,1927.35,603.66z M1880.94,613.5c-5.85,3.38-10.4,8.13-13.65,14.24
				c-3.25,6.11-4.88,13.06-4.88,20.86c0,7.93,1.62,14.95,4.88,21.06c3.25,6.11,7.8,10.86,13.65,14.24
				c5.85,3.38,12.48,5.07,19.89,5.07c7.41,0,14.04-1.69,19.89-5.07c5.85-3.38,10.4-8.12,13.65-14.24
				c3.25-6.11,4.88-13.13,4.88-21.06c0-7.8-1.63-14.75-4.88-20.86c-3.25-6.11-7.8-10.85-13.65-14.24
				c-5.85-3.38-12.48-5.07-19.89-5.07C1893.42,608.43,1886.79,610.13,1880.94,613.5z"/>
		</g>
		<g>
			<path class="st0" d="M1980.98,555h13.06v144.7h-13.06V555z"/>
		</g>
		<g>
			<path class="st0" d="M2100.71,603.66c7.8,4.36,13.91,10.43,18.33,18.23c4.42,7.8,6.63,16.64,6.63,26.52
				c0,10.01-2.21,18.95-6.63,26.81c-4.42,7.87-10.53,13.98-18.33,18.33c-7.8,4.36-16.64,6.53-26.52,6.53
				c-9.88,0-18.72-2.18-26.52-6.53c-7.8-4.35-13.91-10.46-18.33-18.33c-4.42-7.86-6.63-16.8-6.63-26.81
				c0-9.88,2.21-18.72,6.63-26.52c4.42-7.8,10.53-13.88,18.33-18.23c7.8-4.35,16.64-6.53,26.52-6.53
				C2084.07,597.12,2092.91,599.3,2100.71,603.66z M2054.3,613.5c-5.85,3.38-10.4,8.13-13.65,14.24
				c-3.25,6.11-4.88,13.06-4.88,20.86c0,7.93,1.62,14.95,4.88,21.06c3.25,6.11,7.8,10.86,13.65,14.24
				c5.85,3.38,12.48,5.07,19.89,5.07c7.41,0,14.04-1.69,19.89-5.07c5.85-3.38,10.4-8.12,13.65-14.24
				c3.25-6.11,4.88-13.13,4.88-21.06c0-7.8-1.63-14.75-4.88-20.86c-3.25-6.11-7.8-10.85-13.65-14.24
				c-5.85-3.38-12.48-5.07-19.89-5.07C2066.78,608.43,2060.15,610.13,2054.3,613.5z"/>
		</g>
		<g>
			<path class="st0" d="M2241.7,597.51v91.46c0,9.88-2.08,18.53-6.24,25.94c-4.16,7.41-10.11,13.1-17.84,17.06
				c-7.74,3.96-16.67,5.95-26.81,5.95c-15.08,0-29.06-5.2-41.93-15.6l6.24-9.36c5.2,4.55,10.66,7.99,16.38,10.34
				c5.72,2.34,11.96,3.51,18.72,3.51c11.7,0,21.03-3.41,27.98-10.24c6.95-6.82,10.43-15.96,10.43-27.4v-16.58
				c-3.64,7.15-8.84,12.74-15.6,16.77c-6.76,4.03-14.56,6.05-23.4,6.05c-9.1,0-17.19-2.11-24.28-6.34
				c-7.09-4.22-12.61-10.07-16.58-17.55c-3.97-7.48-5.95-15.96-5.95-25.45c0-9.49,1.98-17.94,5.95-25.35
				c3.96-7.41,9.52-13.19,16.67-17.36c7.15-4.16,15.27-6.24,24.38-6.24c8.84,0,16.58,1.98,23.21,5.95
				c6.63,3.97,11.83,9.59,15.6,16.87v-22.43H2241.7z M2210.89,679.9c5.59-3.32,9.94-7.9,13.06-13.75
				c3.12-5.85,4.68-12.41,4.68-19.69c0-7.41-1.56-14.04-4.68-19.89c-3.12-5.85-7.48-10.43-13.06-13.75
				c-5.59-3.32-11.9-4.97-18.92-4.97c-7.02,0-13.33,1.66-18.92,4.97c-5.59,3.32-9.98,7.9-13.16,13.75
				c-3.19,5.85-4.78,12.48-4.78,19.89c0,7.41,1.59,14.01,4.78,19.79c3.19,5.79,7.54,10.34,13.07,13.65
				c5.52,3.32,11.86,4.97,19.01,4.97C2198.99,684.88,2205.3,683.22,2210.89,679.9z"/>
		</g>
		<g>
			<path class="st0" d="M2290.26,561.53c1.69,1.75,2.54,3.93,2.54,6.53c0,2.6-0.88,4.81-2.63,6.63c-1.75,1.82-3.87,2.73-6.34,2.73
				c-2.6,0-4.78-0.91-6.53-2.73c-1.75-1.82-2.63-4.03-2.63-6.63c0-2.6,0.88-4.78,2.63-6.53c1.75-1.75,3.93-2.63,6.53-2.63
				C2286.42,558.9,2288.57,559.78,2290.26,561.53z M2277.19,597.51h13.07V699.7h-13.07V597.51z"/>
		</g>
		<g>
			<path class="st0" d="M2404.34,612.24c8.32,10.08,12.15,23.63,11.5,40.66h-85.22c0.91,10.92,4.94,19.73,12.09,26.42
				c7.15,6.7,15.99,10.04,26.52,10.04c6.5,0,12.54-1.17,18.14-3.51c5.59-2.34,10.4-5.66,14.43-9.95l7.41,7.41
				c-4.94,5.33-10.89,9.46-17.84,12.38c-6.96,2.92-14.6,4.39-22.91,4.39c-9.88,0-18.66-2.18-26.32-6.53
				c-7.67-4.35-13.68-10.43-18.04-18.23c-4.36-7.8-6.53-16.7-6.53-26.72c0-9.88,2.17-18.75,6.53-26.62
				c4.35-7.86,10.37-13.97,18.04-18.33c7.67-4.35,16.31-6.53,25.94-6.53C2383.92,597.12,2396.01,602.16,2404.34,612.24z
				 M2404.14,642.76c-0.65-10.66-4.19-19.14-10.63-25.45c-6.43-6.31-14.85-9.46-25.25-9.46c-10.27,0-18.85,3.19-25.74,9.55
				c-6.89,6.37-10.86,14.82-11.89,25.35H2404.14z"/>
		</g>
		<g>
			<path class="st0" d="M2482.92,609.9c-4.81-1.37-9.55-2.05-14.24-2.05c-6.5,0-11.73,1.27-15.7,3.8
				c-3.97,2.54-5.95,6.34-5.95,11.41c0,3.51,1.07,6.37,3.22,8.58c2.15,2.21,4.81,4,7.99,5.36c3.18,1.37,7.64,2.9,13.36,4.58
				c7.02,2.08,12.74,4.13,17.16,6.14c4.42,2.02,8.19,4.94,11.31,8.78c3.12,3.84,4.68,8.87,4.68,15.11c0,9.23-3.51,16.28-10.53,21.16
				c-7.02,4.88-15.8,7.31-26.32,7.31c-7.41,0-14.56-1.23-21.45-3.71c-6.89-2.47-12.68-5.98-17.35-10.53l5.26-9.36
				c4.42,4.03,9.65,7.22,15.7,9.55c6.05,2.34,12.19,3.51,18.43,3.51c6.89,0,12.51-1.43,16.87-4.29c4.35-2.86,6.53-7.02,6.53-12.48
				c0-3.77-1.11-6.86-3.31-9.26c-2.21-2.4-4.97-4.29-8.29-5.65c-3.32-1.36-7.9-2.96-13.75-4.78c-6.89-2.08-12.48-4.09-16.77-6.05
				c-4.29-1.95-7.93-4.78-10.92-8.48c-2.99-3.71-4.49-8.55-4.49-14.53c0-8.97,3.35-15.73,10.04-20.28
				c6.69-4.55,15.05-6.82,25.06-6.82c5.85,0,11.51,0.78,16.97,2.34c5.46,1.56,10.34,3.71,14.63,6.43l-5.07,9.95
				C2492.09,613.18,2487.73,611.26,2482.92,609.9z"/>
		</g>
		<g>
			<path class="st0" d="M2597.39,561.53c1.69,1.75,2.53,3.93,2.53,6.53c0,2.6-0.88,4.81-2.63,6.63c-1.75,1.82-3.87,2.73-6.34,2.73
				c-2.6,0-4.78-0.91-6.53-2.73c-1.76-1.82-2.63-4.03-2.63-6.63c0-2.6,0.88-4.78,2.63-6.53c1.75-1.75,3.93-2.63,6.53-2.63
				C2593.55,558.9,2595.7,559.78,2597.39,561.53z M2584.32,597.51h13.07V699.7h-13.07V597.51z"/>
		</g>
		<g>
			<path class="st0" d="M2717.61,607.75c6.95,7.09,10.43,16.8,10.43,29.15v62.79h-13.26v-59.67c0-9.62-2.67-17.16-7.99-22.62
				c-5.33-5.46-12.74-8.19-22.23-8.19c-10.53,0.13-18.95,3.38-25.25,9.75c-6.31,6.37-9.91,14.95-10.82,25.74v54.99h-13.07V597.51
				h13.07v23.79c3.51-7.93,8.68-13.91,15.5-17.94c6.83-4.03,15.11-6.11,24.86-6.24C2701.06,597.12,2710.65,600.67,2717.61,607.75z"
				/>
		</g>
		<g>
			<path class="st0" d="M2803.51,608.63c-7.28,0-13.85,1.69-19.69,5.07c-5.85,3.38-10.4,8.09-13.65,14.14
				c-3.25,6.05-4.87,12.97-4.87,20.77c0,7.8,1.62,14.76,4.87,20.87c3.25,6.11,7.8,10.86,13.65,14.23
				c5.85,3.38,12.41,5.07,19.69,5.07c6.63,0,12.71-1.17,18.23-3.51c5.52-2.34,10.17-5.72,13.94-10.14l7.41,7.8
				c-4.55,5.46-10.27,9.69-17.16,12.68c-6.89,2.99-14.56,4.48-23.01,4.48c-9.75,0-18.46-2.18-26.13-6.53
				c-7.67-4.35-13.68-10.46-18.04-18.33c-4.36-7.86-6.53-16.74-6.53-26.62c0-9.88,2.18-18.75,6.53-26.62
				c4.35-7.86,10.37-13.97,18.04-18.33c7.67-4.35,16.38-6.53,26.13-6.53c7.93,0,15.18,1.3,21.74,3.9
				c6.56,2.6,12.19,6.24,16.87,10.92l-7.41,8.78C2825.8,612.66,2815.6,608.63,2803.51,608.63z"/>
		</g>
	</g>
</g>
</svg>
