<svg width="50" height="50" viewBox="0 0 50 50" fill="none" xmlns="http://www.w3.org/2000/svg">
<g clip-path="url(#clip0_20838_59948)">
<path d="M35.418 14.5833H29.168C28.0221 14.5833 27.0846 15.5208 27.0846 16.6666C27.0846 17.8125 28.0221 18.75 29.168 18.75H35.418C38.8555 18.75 41.668 21.5625 41.668 25C41.668 28.4375 38.8555 31.25 35.418 31.25H29.168C28.0221 31.25 27.0846 32.1875 27.0846 33.3333C27.0846 34.4791 28.0221 35.4166 29.168 35.4166H35.418C41.168 35.4166 45.8346 30.75 45.8346 25C45.8346 19.25 41.168 14.5833 35.418 14.5833ZM16.668 25C16.668 26.1458 17.6055 27.0833 18.7513 27.0833H31.2513C32.3971 27.0833 33.3346 26.1458 33.3346 25C33.3346 23.8541 32.3971 22.9166 31.2513 22.9166H18.7513C17.6055 22.9166 16.668 23.8541 16.668 25ZM20.8346 31.25H14.5846C11.1471 31.25 8.33464 28.4375 8.33464 25C8.33464 21.5625 11.1471 18.75 14.5846 18.75H20.8346C21.9805 18.75 22.918 17.8125 22.918 16.6666C22.918 15.5208 21.9805 14.5833 20.8346 14.5833H14.5846C8.83464 14.5833 4.16797 19.25 4.16797 25C4.16797 30.75 8.83464 35.4166 14.5846 35.4166H20.8346C21.9805 35.4166 22.918 34.4791 22.918 33.3333C22.918 32.1875 21.9805 31.25 20.8346 31.25Z" fill="white"/>
</g>
<defs>
<clipPath id="clip0_20838_59948">
<rect width="50" height="50" fill="white"/>
</clipPath>
</defs>
</svg>
