<svg width="34" height="50" viewBox="0 0 34 50" fill="none" xmlns="http://www.w3.org/2000/svg">
<path d="M15.8328 14.6028C13.8972 14.6028 12.3281 16.1394 12.3281 18.0348C12.3281 19.9303 13.8972 21.4669 15.8328 21.4669C21.0604 21.4669 26.0604 24.2802 27.8128 28.9827C27.7459 26.7872 27.2258 24.6276 26.2837 22.6343C24.2618 18.3648 19.4765 14.6028 15.8328 14.6028Z" fill="white"/>
<path d="M26.9226 22.3374C28.3015 25.2452 28.8056 28.4776 28.3759 31.6559C28.1975 33.7583 27.5551 35.7977 26.4929 37.6331C24.2478 41.4611 19.9596 43.1359 15.8188 43.1359H15.8609C11.9898 43.1359 8.85156 46.2091 8.85156 50H15.8188C25.7896 49.9751 33.8648 42.0635 33.8856 32.2994C33.8856 23.5749 27.4534 16.3148 19.3825 14.8793C22.739 16.3837 25.42 19.0355 26.9226 22.3374Z" fill="white"/>
<path opacity="0.15" d="M15.8328 14.6028C13.8972 14.6028 12.3281 16.1394 12.3281 18.0348C12.3281 19.9303 13.8972 21.4669 15.8328 21.4669C21.0604 21.4669 26.0604 24.2802 27.8128 28.9827C27.7459 26.7872 27.2258 24.6276 26.2837 22.6343C24.2618 18.3648 19.4765 14.6028 15.8328 14.6028Z" fill="white"/>
<path d="M18.0698 35.393C19.9593 35.3289 21.4572 33.8103 21.4572 31.9589C21.4572 30.1075 19.9593 28.5889 18.0698 28.5248C12.8423 28.5248 7.84219 25.7115 6.08984 21.0131C6.15725 23.2072 6.67739 25.3653 7.61893 27.3574C9.64087 31.6392 14.4219 35.393 18.0698 35.393Z" fill="white"/>
<path d="M6.97146 27.6626C5.59051 24.7554 5.08631 21.5225 5.5182 18.3441C5.69608 16.2429 6.33858 14.2048 7.40113 12.3711C9.64632 8.543 13.9345 6.8641 18.0753 6.8641H18.0289C19.8916 6.86958 21.6798 6.14882 22.9989 4.86096C24.318 3.57309 25.0594 1.82405 25.0594 0H18.0753C8.10122 0.0204219 0.0208541 7.93331 0 17.7006C0 26.4293 6.43228 33.6852 14.499 35.1207C11.1485 33.6119 8.47295 30.9611 6.97146 27.6626Z" fill="white"/>
<path opacity="0.15" d="M18.0698 35.393C19.9593 35.3289 21.4572 33.8103 21.4572 31.9589C21.4572 30.1075 19.9593 28.5889 18.0698 28.5248C12.8423 28.5248 7.84219 25.7115 6.08984 21.0131C6.15725 23.2072 6.67739 25.3653 7.61893 27.3574C9.64087 31.6392 14.4219 35.393 18.0698 35.393Z" fill="white"/>
</svg>
